<?xml version="1.0" encoding="utf-8"?>
<!-- Generator: Adobe Illustrator 13.0.0, SVG Export Plug-In . SVG Version: 6.00 Build 14948)  -->
<!DOCTYPE svg PUBLIC "-//W3C//DTD SVG 1.1//EN" "http://www.w3.org/Graphics/SVG/1.1/DTD/svg11.dtd">
<svg version="1.1" xmlns="http://www.w3.org/2000/svg" xmlns:xlink="http://www.w3.org/1999/xlink" x="0px" y="0px" width="791px"
	 height="792px" viewBox="-91.5 -0.5 791 792" enable-background="new -91.5 -0.5 791 792" xml:space="preserve">
<g id="Layer_2">
	<rect x="-91.5" y="-0.5" fill="#005982" width="791" height="792"/>
	<rect x="-90.5" y="-0.5" fill="none" width="790" height="792"/>
</g>
<g id="Layer_1">
	<g>
		<path fill="#FFFFFF" d="M336.162,343.266c-7.003-27.503-58.849-54.543-149.432-54.543c-90.517,0-142.358,27.004-149.416,54.488
			c-0.543,1.058-0.875,2.241-0.875,3.513v249.82c0,2.393,1.101,4.505,2.794,5.937c11.992,25.549,62.822,49.176,147.496,49.176
			c84.697,0,135.532-23.639,147.507-49.199c1.679-1.428,2.768-3.531,2.768-5.913v-5.691c0-0.047,0.008-0.09,0.008-0.137
			c0-0.027-0.008-0.05-0.008-0.077v-81.224c0-0.046,0.008-0.09,0.008-0.136c0-0.028-0.008-0.051-0.008-0.078V429.61
			c0-0.048,0.008-0.09,0.008-0.137c0-0.027-0.008-0.052-0.008-0.079v-79.59c0-0.047,0.008-0.09,0.008-0.137
			s-0.008-0.094-0.008-0.141v-2.802C337.005,345.475,336.685,344.312,336.162,343.266z M321.392,509.372
			c-0.165,21.415-55.417,45.233-134.662,45.233c-79.36,0-134.668-23.889-134.668-45.33c0-0.027-0.008-0.052-0.008-0.079v-52.169
			c22.261,18.717,67.967,33.387,134.676,33.387c66.698,0,112.392-14.665,134.662-33.375V509.372z M321.392,429.567
			C321.227,450.98,265.974,474.8,186.73,474.8c-79.36,0-134.668-23.889-134.668-45.331c0-0.026-0.008-0.051-0.008-0.078v-52.169
			c22.261,18.716,67.967,33.386,134.676,33.386c66.698,0,112.392-14.661,134.662-33.374V429.567z M186.73,304.337
			c79.244,0,134.497,23.818,134.662,45.233v0.191c-0.165,21.415-55.417,45.233-134.662,45.233
			c-79.36,0-134.668-23.889-134.668-45.327C52.062,328.229,107.37,304.337,186.73,304.337z M186.73,636.043
			c-79.36,0-134.668-23.89-134.668-45.327c0-0.027-0.008-0.05-0.008-0.077v-53.802c22.261,18.717,67.967,33.387,134.676,33.387
			c66.698,0,112.392-14.665,134.662-33.375v53.961C321.227,612.228,265.974,636.043,186.73,636.043z"/>
		<path fill="#FFFFFF" d="M84.004,641.343c-24.937-9.211-41.595-21.534-48.849-35.829l0,0c-2.25-2.268-3.718-5.443-3.715-8.971l0,0
			V346.724c-0.002-1.922,0.456-3.716,1.166-5.263l0,0c2.18-7.939,7.362-15.386,14.998-22.112l0,0
			c7.819-6.875,18.264-13.064,31.244-18.323l0,0c25.961-10.502,62.124-17.296,107.883-17.305l0,0
			c68.695,0.081,115.729,15.152,139.172,35.668l0,0c7.642,6.741,12.816,14.206,14.978,22.16l0,0
			c0.682,1.522,1.124,3.282,1.124,5.174l0,0v2.656c0.004,0.075,0.007,0.17,0.007,0.288l0,0c0,0.109-0.003,0.203-0.007,0.278l0,0
			v79.275c0.004,0.077,0.007,0.161,0.007,0.253l0,0c0,0.109-0.003,0.203-0.007,0.279l0,0v79.264c0.004,0.08,0.007,0.168,0.007,0.262
			l0,0c0,0.111-0.003,0.205-0.007,0.28l0,0v80.909c0.004,0.076,0.007,0.159,0.007,0.248l0,0c0,0.109-0.003,0.202-0.007,0.277l0,0
			v5.55c0.002,3.51-1.452,6.678-3.688,8.944l0,0c-7.243,14.303-23.899,26.632-48.839,35.847l0,0
			c-25.516,9.363-59.931,15.315-102.747,15.321l0,0C143.926,656.649,109.518,650.701,84.004,641.343L84.004,641.343z
			 M54.211,326.854c-6.733,5.924-10.623,11.985-12.055,17.6l0,0l-0.138,0.539l-0.257,0.5c-0.229,0.454-0.32,0.833-0.322,1.23l0,0
			v249.819c0.004,0.831,0.356,1.54,1.022,2.119l0,0l0.833,0.701l0.465,0.991c4.993,10.867,19.572,22.805,43.688,31.6l0,0
			c24.067,8.844,57.413,14.706,99.281,14.7l0,0c41.881,0.006,75.23-5.861,99.3-14.707l0,0c24.118-8.799,38.692-20.743,43.678-31.612
			l0,0l0.462-0.986l0.827-0.702c0.651-0.568,1.004-1.272,1.008-2.104l0,0v-5.691c0-0.027,0-0.054,0.001-0.079l0,0
			c-0.002-0.043-0.003-0.087-0.003-0.133l0,0l0.002-81.226c0-0.043,0.001-0.083,0.001-0.12l0,0c0-0.03-0.001-0.061-0.001-0.093l0,0
			v-79.592c0-0.027,0-0.055,0.001-0.08l0,0c-0.002-0.044-0.003-0.089-0.003-0.136l0,0l0.002-79.59c0-0.039,0-0.076,0.001-0.111l0,0
			c-0.001-0.05-0.003-0.105-0.003-0.167l0,0l0.002-2.802c-0.002-0.388-0.091-0.768-0.316-1.224l0,0l4.474-2.234l4.846-1.234
			l-4.846,1.234l-4.474,2.234l-0.241-0.481l-0.132-0.52c-1.421-5.617-5.299-11.679-12.025-17.608l0,0
			c-6.711-5.922-16.203-11.646-28.379-16.577l0,0c-24.356-9.881-59.39-16.599-104.181-16.59l0,0c-0.172,0-0.342,0-0.513,0l0,0
			C119.371,293.723,74.301,309.016,54.211,326.854L54.211,326.854z M67.88,616.94c-7.944-4.652-13.937-9.7-17.544-15.5l0,0
			c-2.005-3.243-3.229-6.814-3.274-10.506l0,0c-0.005-0.089-0.009-0.188-0.01-0.295l0,0V526.1l8.217,6.91
			c20.657,17.5,65.497,32.283,131.46,32.213l0,0c65.953,0.07,110.78-14.706,131.445-32.204l0,0l8.215-6.9v64.729
			c-0.025,3.766-1.278,7.399-3.338,10.697l0,0c-2.066,3.312-4.933,6.359-8.471,9.245l0,0c-7.085,5.754-16.922,10.909-29.158,15.368
			l0,0c-24.458,8.881-58.563,14.876-98.693,14.886l0,0v-5.001v-5c51.31,0.047,92.442-10.256,113.714-22.685l0,0
			c7.084-4.094,11.866-8.428,14.119-12.1l0,0c1.305-2.104,1.813-3.898,1.828-5.449l0,0v-44.08
			c-25.605,16.751-69.256,28.431-129.661,28.494l0,0c-60.411-0.063-104.072-11.746-129.676-28.502l0,0v43.747
			c0.003,0.076,0.006,0.159,0.006,0.248l0,0c0.002,1.586,0.499,3.375,1.788,5.479l0,0c1.283,2.088,3.367,4.415,6.26,6.775l0,0
			c5.778,4.741,14.732,9.566,26.239,13.75l0,0c23.026,8.399,56.212,14.331,95.383,14.322l0,0v5v5.001
			C133.956,640.995,91.693,630.754,67.88,616.94L67.88,616.94z M67.88,535.503c-7.944-4.652-13.937-9.701-17.544-15.502l0,0
			c-2.005-3.243-3.229-6.813-3.274-10.505l0,0c-0.005-0.089-0.009-0.189-0.01-0.301l0,0v-62.904l8.217,6.908
			c20.657,17.502,65.497,32.285,131.46,32.213l0,0c65.953,0.072,110.78-14.706,131.445-32.202l0,0l8.215-6.904v63.065h-4.999
			l4.999,0.038c-0.025,3.766-1.278,7.399-3.338,10.697l0,0c-2.066,3.31-4.933,6.359-8.471,9.244l0,0
			c-7.085,5.755-16.92,10.907-29.158,15.366l0,0c-24.458,8.884-58.563,14.879-98.693,14.889l0,0
			C133.956,559.557,91.693,549.315,67.88,535.503L67.88,535.503z M300.444,526.92c7.084-4.096,11.866-8.428,14.119-12.1l0,0
			c1.305-2.104,1.813-3.898,1.828-5.487l0,0V466.92c-25.605,16.75-69.256,28.43-129.661,28.494l0,0
			c-60.411-0.064-104.072-11.747-129.676-28.503l0,0v42.09c0.004,0.083,0.008,0.175,0.008,0.274l0,0
			c0,1.589,0.497,3.378,1.786,5.479l0,0c1.283,2.09,3.367,4.416,6.26,6.777l0,0c5.778,4.741,14.734,9.566,26.239,13.75l0,0
			c23.026,8.399,56.212,14.331,95.383,14.322l0,0C238.04,549.651,279.172,539.346,300.444,526.92L300.444,526.92z M67.88,455.698
			c-7.944-4.654-13.937-9.702-17.544-15.504l0,0c-2.004-3.241-3.228-6.811-3.274-10.502l0,0c-0.005-0.09-0.009-0.19-0.01-0.302l0,0
			v-62.906l8.217,6.909c20.657,17.502,65.497,32.284,131.46,32.212l0,0c65.953,0.072,110.78-14.702,131.445-32.202l0,0l8.215-6.904
			v63.068h-4.999l4.999,0.038c-0.025,3.765-1.278,7.398-3.338,10.695l0,0c-2.066,3.311-4.933,6.359-8.471,9.244l0,0
			c-7.085,5.755-16.92,10.907-29.158,15.366l0,0c-24.458,8.883-58.563,14.88-98.693,14.889l0,0
			C133.956,479.753,91.693,469.512,67.88,455.698L67.88,455.698z M300.444,447.113c7.084-4.096,11.866-8.427,14.119-12.099l0,0
			c1.305-2.103,1.813-3.896,1.828-5.488l0,0v-42.411c-25.606,16.752-69.258,28.428-129.661,28.492l0,0
			c-60.411-0.064-104.072-11.746-129.676-28.501l0,0v42.083c0.004,0.083,0.008,0.176,0.008,0.278l0,0
			c0,1.589,0.497,3.379,1.786,5.48l0,0c1.283,2.09,3.367,4.417,6.26,6.777l0,0c5.778,4.741,14.734,9.567,26.239,13.75l0,0
			c23.026,8.4,56.212,14.331,95.383,14.322l0,0C238.04,469.845,279.172,459.54,300.444,447.113L300.444,447.113z M67.88,375.895
			c-7.944-4.654-13.937-9.703-17.544-15.502l0,0c-2.045-3.307-3.277-6.956-3.275-10.725l0,0c-0.002-3.771,1.23-7.42,3.275-10.727
			l0,0c2.051-3.322,4.908-6.378,8.442-9.271l0,0c7.072-5.77,16.904-10.935,29.146-15.404l0,0
			c24.468-8.905,58.615-14.92,98.806-14.929l0,0v5.002v5c-51.387-0.046-92.568,10.29-113.814,22.742l0,0
			c-7.076,4.103-11.838,8.44-14.068,12.108l0,0c-1.29,2.104-1.784,3.892-1.786,5.481l0,0c0,1.587,0.497,3.375,1.786,5.479l0,0
			c1.283,2.087,3.367,4.415,6.26,6.775l0,0c5.778,4.741,14.732,9.567,26.239,13.75l0,0c23.026,8.4,56.212,14.331,95.383,14.323l0,0
			c51.31,0.046,92.442-10.258,113.714-22.687l0,0c7.084-4.094,11.866-8.428,14.119-12.097l0,0c1.305-2.104,1.813-3.899,1.828-5.45
			l0,0v-0.152c-0.015-1.589-0.523-3.383-1.828-5.488l0,0c-1.296-2.091-3.392-4.417-6.296-6.775l0,0
			c-5.797-4.735-14.757-9.552-26.26-13.725l0,0c-23.02-8.378-56.164-14.292-95.276-14.284l0,0v-5v-5.002
			c52.697,0.047,94.907,10.258,118.739,24.04l0,0c7.948,4.642,13.951,9.679,17.583,15.459l0,0c2.06,3.299,3.313,6.932,3.338,10.735
			l0,0v0.229c-0.025,3.763-1.278,7.398-3.338,10.695l0,0c-2.066,3.312-4.933,6.359-8.471,9.245l0,0
			c-7.085,5.754-16.92,10.909-29.158,15.368l0,0c-24.458,8.883-58.563,14.877-98.693,14.886l0,0
			C133.956,399.946,91.693,389.706,67.88,375.895L67.88,375.895z"/>
	</g>
	<g>
		<path fill="#FFFFFF" stroke="#FFFFFF" stroke-width="5" stroke-linecap="round" stroke-linejoin="round" d="M427.38,365.951
			l-71.116-59.932l71.116-59.827l16.46,16.671l-52.335,42.944l52.335,43.472L427.38,365.951z"/>
		<path fill="#FFFFFF" stroke="#FFFFFF" stroke-width="5" stroke-linecap="round" stroke-linejoin="round" d="M566.131,260.227
			c0,5.909-0.897,11.203-2.691,15.88c-1.793,4.679-4.362,8.723-7.702,12.134c-3.342,3.413-7.369,6.173-12.081,8.283
			c-4.714,2.11-9.989,3.553-15.827,4.326l-1.056,19.837h-22.052l-1.899-39.673h15.3c3.445,0,6.418-0.491,8.915-1.477
			c2.496-0.984,4.537-2.322,6.12-4.01s2.743-3.64,3.482-5.856c0.738-2.216,1.107-4.554,1.107-7.017c0-3.376-0.722-6.524-2.163-9.444
			c-1.442-2.918-3.692-5.486-6.753-7.702c-3.06-2.216-6.947-3.957-11.659-5.223c-4.713-1.266-10.377-1.899-16.987-1.899h-6.226
			v-23.952h7.28c10.832,0,20.293,1.284,28.384,3.851c8.088,2.568,14.841,5.979,20.258,10.235c5.416,4.257,9.479,9.127,12.188,14.614
			C564.775,248.62,566.131,254.317,566.131,260.227z M533.21,349.069c0,2.321-0.458,4.502-1.371,6.542
			c-0.915,2.041-2.147,3.835-3.693,5.381c-1.548,1.548-3.377,2.76-5.486,3.64c-2.11,0.879-4.363,1.319-6.753,1.319
			c-2.393,0-4.627-0.44-6.7-1.319c-2.076-0.88-3.888-2.092-5.435-3.64c-1.548-1.546-2.779-3.34-3.692-5.381
			c-0.915-2.04-1.372-4.221-1.372-6.542s0.457-4.5,1.372-6.542c0.913-2.04,2.145-3.833,3.692-5.381
			c1.547-1.546,3.358-2.76,5.435-3.64c2.073-0.879,4.308-1.319,6.7-1.319c2.39,0,4.643,0.44,6.753,1.319
			c2.109,0.88,3.938,2.094,5.486,3.64c1.546,1.548,2.778,3.342,3.693,5.381C532.752,344.568,533.21,346.748,533.21,349.069z"/>
	</g>
</g>
</svg>
